# xmcd
#
# Track frame offsets:
# 150
# 19064
# 36812
# 56567
# 82022
# 109892
# 129414
# 145922
# 166282
# 190437
# 211872
# 231717
#
# Disc length: 3328 seconds
#
#
# Revision: 2
# Processed by: cddbd v1.5PL3 Copyright (c) Steve Scherf et al.
# Submitted via: FreeRIP 2.53 
#
DISCID=ac0cfe0c
DTITLE=John Hiatt (Various) - Rollin´Into Memphis - Songs Of John Hiatt
DYEAR=2000
DGENRE=Rock
TTITLE0=C.J. Chenier - Falling Up
TTITLE1=Terrance Simien - It Hasn´t Happened Yet
TTITLE2=Irma Thomas - Old Habits Are Hard To Break
TTITLE3=Odetta - Listening To Old Voices
TTITLE4=Kenny Neal - Love Like Blood
TTITLE5=Kris Wiley and James Cotton - Wrote It Down
TTITLE6=Collin Linden - The River Knows Your Name
TTITLE7=Tab Benoit and Raful Neal - Feels Like Rain
TTITLE8=Unknow - Thirty Years Of Tears
TTITLE9=Chris Smither - Real Fine Love
TTITLE10=Cliff Eberhardt - Back Of My Mind
TTITLE11=Patty Larkin - Have A Little Faith In Me
EXTD=
EXTT0=
EXTT1=
EXTT2=
EXTT3=
EXTT4=
EXTT5=
EXTT6=
EXTT7=
EXTT8=
EXTT9=
EXTT10=
EXTT11=
PLAYORDER=
